<svg width="436" height="64" viewBox="0 0 436 64" fill="none" xmlns="http://www.w3.org/2000/svg">
<path d="M43.4915 20.3182H32.1278C31.9763 19.1515 31.6657 18.0985 31.196 17.1591C30.7263 16.2197 30.1051 15.4167 29.3324 14.75C28.5597 14.0833 27.643 13.5758 26.5824 13.2273C25.5369 12.8636 24.3778 12.6818 23.1051 12.6818C20.8475 12.6818 18.9006 13.2348 17.2642 14.3409C15.643 15.447 14.393 17.0455 13.5142 19.1364C12.6506 21.2273 12.2188 23.7576 12.2188 26.7273C12.2188 29.8182 12.6581 32.4091 13.5369 34.5C14.4309 36.5758 15.6809 38.1439 17.2869 39.2045C18.9081 40.25 20.8248 40.7727 23.0369 40.7727C24.2794 40.7727 25.4081 40.6136 26.4233 40.2955C27.4536 39.9773 28.3551 39.5152 29.1278 38.9091C29.9157 38.2879 30.5597 37.5379 31.0597 36.6591C31.5748 35.7652 31.9309 34.7576 32.1278 33.6364L43.4915 33.7045C43.2945 35.7652 42.696 37.7955 41.696 39.7955C40.7112 41.7955 39.3551 43.6212 37.6278 45.2727C35.9006 46.9091 33.7945 48.2121 31.3097 49.1818C28.84 50.1515 26.0066 50.6364 22.8097 50.6364C18.5975 50.6364 14.8248 49.7121 11.4915 47.8636C8.1733 46 5.55208 43.2879 3.62784 39.7273C1.7036 36.1667 0.741477 31.8333 0.741477 26.7273C0.741477 21.6061 1.71875 17.2652 3.6733 13.7045C5.62784 10.1439 8.27178 7.43939 11.6051 5.59091C14.9384 3.74242 18.6733 2.81818 22.8097 2.81818C25.6278 2.81818 28.2339 3.21212 30.6278 4C33.0218 4.77273 35.1278 5.90909 36.946 7.40909C38.7642 8.89394 40.2415 10.7197 41.3778 12.8864C42.5142 15.053 43.2188 17.5303 43.4915 20.3182ZM66.2244 50.6591C62.5578 50.6591 59.4063 49.9091 56.7699 48.4091C54.1487 46.8939 52.1259 44.7879 50.7017 42.0909C49.2926 39.3788 48.5881 36.2348 48.5881 32.6591C48.5881 29.0682 49.2926 25.9242 50.7017 23.2273C52.1259 20.5152 54.1487 18.4091 56.7699 16.9091C59.4063 15.3939 62.5578 14.6364 66.2244 14.6364C69.8911 14.6364 73.035 15.3939 75.6562 16.9091C78.2926 18.4091 80.3153 20.5152 81.7244 23.2273C83.1487 25.9242 83.8608 29.0682 83.8608 32.6591C83.8608 36.2348 83.1487 39.3788 81.7244 42.0909C80.3153 44.7879 78.2926 46.8939 75.6562 48.4091C73.035 49.9091 69.8911 50.6591 66.2244 50.6591ZM66.2926 42.2727C67.6259 42.2727 68.7547 41.8636 69.679 41.0455C70.6032 40.2273 71.3078 39.0909 71.7926 37.6364C72.2926 36.1818 72.5426 34.5 72.5426 32.5909C72.5426 30.6515 72.2926 28.9545 71.7926 27.5C71.3078 26.0455 70.6032 24.9091 69.679 24.0909C68.7547 23.2727 67.6259 22.8636 66.2926 22.8636C64.9138 22.8636 63.7472 23.2727 62.7926 24.0909C61.8532 24.9091 61.1335 26.0455 60.6335 27.5C60.1487 28.9545 59.9062 30.6515 59.9062 32.5909C59.9062 34.5 60.1487 36.1818 60.6335 37.6364C61.1335 39.0909 61.8532 40.2273 62.7926 41.0455C63.7472 41.8636 64.9138 42.2727 66.2926 42.2727ZM100.668 3.45454V50H89.554V3.45454H100.668ZM118.855 3.45454V50H107.741V3.45454H118.855ZM142.247 50.6591C138.596 50.6591 135.444 49.9394 132.793 48.5C130.156 47.0455 128.126 44.9773 126.702 42.2955C125.293 39.5985 124.588 36.3939 124.588 32.6818C124.588 29.0758 125.3 25.9242 126.724 23.2273C128.149 20.5152 130.156 18.4091 132.747 16.9091C135.338 15.3939 138.391 14.6364 141.906 14.6364C144.391 14.6364 146.664 15.0227 148.724 15.7955C150.785 16.5682 152.565 17.7121 154.065 19.2273C155.565 20.7424 156.732 22.6136 157.565 24.8409C158.399 27.053 158.815 29.5909 158.815 32.4545V35.2273H128.474V28.7727H148.474C148.459 27.5909 148.179 26.5379 147.634 25.6136C147.088 24.6894 146.338 23.9697 145.384 23.4545C144.444 22.9242 143.361 22.6591 142.134 22.6591C140.891 22.6591 139.777 22.9394 138.793 23.5C137.808 24.0455 137.027 24.7955 136.452 25.75C135.876 26.6894 135.573 27.7576 135.543 28.9545V35.5227C135.543 36.947 135.823 38.197 136.384 39.2727C136.944 40.3333 137.74 41.1591 138.77 41.75C139.8 42.3409 141.027 42.6364 142.452 42.6364C143.437 42.6364 144.33 42.5 145.134 42.2273C145.937 41.9545 146.626 41.553 147.202 41.0227C147.777 40.4924 148.209 39.8409 148.497 39.0682L158.702 39.3636C158.277 41.6515 157.346 43.6439 155.906 45.3409C154.482 47.0227 152.611 48.3333 150.293 49.2727C147.974 50.197 145.293 50.6591 142.247 50.6591ZM180.764 63.8182C177.446 63.8182 174.605 63.3561 172.241 62.4318C169.878 61.5076 168.022 60.2424 166.673 58.6364C165.325 57.0303 164.514 55.2121 164.241 53.1818L174.764 52.5909C174.961 53.303 175.325 53.9242 175.855 54.4545C176.401 54.9848 177.105 55.3939 177.969 55.6818C178.848 55.9697 179.878 56.1136 181.06 56.1136C182.923 56.1136 184.461 55.6591 185.673 54.75C186.901 53.8561 187.514 52.2879 187.514 50.0455V43.9091H187.128C186.688 44.9848 186.022 45.947 185.128 46.7955C184.234 47.6439 183.12 48.3106 181.787 48.7955C180.469 49.2803 178.954 49.5227 177.241 49.5227C174.696 49.5227 172.363 48.9318 170.241 47.75C168.135 46.553 166.446 44.7045 165.173 42.2045C163.916 39.6894 163.287 36.4545 163.287 32.5C163.287 28.4242 163.938 25.0682 165.241 22.4318C166.545 19.7803 168.249 17.8182 170.355 16.5455C172.476 15.2727 174.757 14.6364 177.196 14.6364C179.029 14.6364 180.598 14.9545 181.901 15.5909C183.219 16.2121 184.302 17.0152 185.151 18C185.999 18.9848 186.643 20.0076 187.082 21.0682H187.401V15.0909H198.469V50.1364C198.469 53.0909 197.726 55.5833 196.241 57.6136C194.757 59.6439 192.681 61.1818 190.014 62.2273C187.348 63.2879 184.264 63.8182 180.764 63.8182ZM181.105 41.4318C182.454 41.4318 183.605 41.0758 184.56 40.3636C185.514 39.6515 186.249 38.6288 186.764 37.2955C187.279 35.9621 187.537 34.3636 187.537 32.5C187.537 30.6061 187.279 28.9773 186.764 27.6136C186.264 26.2348 185.529 25.1742 184.56 24.4318C183.605 23.6894 182.454 23.3182 181.105 23.3182C179.726 23.3182 178.56 23.697 177.605 24.4545C176.651 25.2121 175.923 26.2803 175.423 27.6591C174.938 29.0227 174.696 30.6364 174.696 32.5C174.696 34.3636 174.946 35.9621 175.446 37.2955C175.946 38.6288 176.666 39.6515 177.605 40.3636C178.56 41.0758 179.726 41.4318 181.105 41.4318ZM221.872 50.6591C218.221 50.6591 215.069 49.9394 212.418 48.5C209.781 47.0455 207.751 44.9773 206.327 42.2955C204.918 39.5985 204.213 36.3939 204.213 32.6818C204.213 29.0758 204.925 25.9242 206.349 23.2273C207.774 20.5152 209.781 18.4091 212.372 16.9091C214.963 15.3939 218.016 14.6364 221.531 14.6364C224.016 14.6364 226.289 15.0227 228.349 15.7955C230.41 16.5682 232.19 17.7121 233.69 19.2273C235.19 20.7424 236.357 22.6136 237.19 24.8409C238.024 27.053 238.44 29.5909 238.44 32.4545V35.2273H208.099V28.7727H228.099C228.084 27.5909 227.804 26.5379 227.259 25.6136C226.713 24.6894 225.963 23.9697 225.009 23.4545C224.069 22.9242 222.986 22.6591 221.759 22.6591C220.516 22.6591 219.402 22.9394 218.418 23.5C217.433 24.0455 216.652 24.7955 216.077 25.75C215.501 26.6894 215.198 27.7576 215.168 28.9545V35.5227C215.168 36.947 215.448 38.197 216.009 39.2727C216.569 40.3333 217.365 41.1591 218.395 41.75C219.425 42.3409 220.652 42.6364 222.077 42.6364C223.062 42.6364 223.955 42.5 224.759 42.2273C225.562 41.9545 226.251 41.553 226.827 41.0227C227.402 40.4924 227.834 39.8409 228.122 39.0682L238.327 39.3636C237.902 41.6515 236.971 43.6439 235.531 45.3409C234.107 47.0227 232.236 48.3333 229.918 49.2727C227.599 50.197 224.918 50.6591 221.872 50.6591ZM257.866 50V3.45454H269.116V40.8636H288.48V50H257.866ZM294.304 50V15.0909H305.418V50H294.304ZM299.872 11.0227C298.312 11.0227 296.971 10.5076 295.849 9.47727C294.728 8.43182 294.168 7.17424 294.168 5.70454C294.168 4.25 294.728 3.00757 295.849 1.97727C296.971 0.931816 298.312 0.409088 299.872 0.409088C301.448 0.409088 302.789 0.931816 303.895 1.97727C305.016 3.00757 305.577 4.25 305.577 5.70454C305.577 7.17424 305.016 8.43182 303.895 9.47727C302.789 10.5076 301.448 11.0227 299.872 11.0227ZM342.969 25.75L332.764 26.0227C332.658 25.2955 332.37 24.6515 331.901 24.0909C331.431 23.5152 330.817 23.0682 330.06 22.75C329.317 22.4167 328.454 22.25 327.469 22.25C326.181 22.25 325.082 22.5076 324.173 23.0227C323.279 23.5379 322.84 24.2348 322.855 25.1136C322.84 25.7955 323.113 26.3864 323.673 26.8864C324.249 27.3864 325.272 27.7879 326.741 28.0909L333.469 29.3636C336.954 30.0303 339.545 31.1364 341.241 32.6818C342.954 34.2273 343.817 36.2727 343.832 38.8182C343.817 41.2121 343.105 43.2955 341.696 45.0682C340.302 46.8409 338.393 48.2197 335.969 49.2045C333.545 50.1742 330.772 50.6591 327.651 50.6591C322.666 50.6591 318.734 49.6364 315.855 47.5909C312.991 45.5303 311.355 42.7727 310.946 39.3182L321.923 39.0455C322.166 40.3182 322.795 41.2879 323.81 41.9545C324.825 42.6212 326.12 42.9545 327.696 42.9545C329.12 42.9545 330.279 42.6894 331.173 42.1591C332.067 41.6288 332.522 40.9242 332.537 40.0455C332.522 39.2576 332.173 38.6288 331.491 38.1591C330.81 37.6742 329.741 37.2955 328.287 37.0227L322.196 35.8636C318.696 35.2273 316.09 34.053 314.378 32.3409C312.666 30.6136 311.817 28.4167 311.832 25.75C311.817 23.4167 312.438 21.4242 313.696 19.7727C314.954 18.1061 316.741 16.8333 319.06 15.9545C321.378 15.0758 324.113 14.6364 327.264 14.6364C331.991 14.6364 335.719 15.6288 338.446 17.6136C341.173 19.5833 342.681 22.2955 342.969 25.75ZM369.009 15.0909V23.2727H346.986V15.0909H369.009ZM351.599 6.72727H362.713V39.0227C362.713 39.7045 362.819 40.2576 363.031 40.6818C363.259 41.0909 363.584 41.3864 364.009 41.5682C364.433 41.7348 364.94 41.8182 365.531 41.8182C365.955 41.8182 366.402 41.7803 366.872 41.7045C367.357 41.6136 367.721 41.5379 367.963 41.4773L369.645 49.5C369.115 49.6515 368.365 49.8409 367.395 50.0682C366.44 50.2955 365.296 50.4394 363.963 50.5C361.357 50.6212 359.122 50.3182 357.259 49.5909C355.41 48.8485 353.993 47.697 353.009 46.1364C352.039 44.5758 351.569 42.6136 351.599 40.25V6.72727ZM390.622 50.6591C386.971 50.6591 383.819 49.9394 381.168 48.5C378.531 47.0455 376.501 44.9773 375.077 42.2955C373.668 39.5985 372.963 36.3939 372.963 32.6818C372.963 29.0758 373.675 25.9242 375.099 23.2273C376.524 20.5152 378.531 18.4091 381.122 16.9091C383.713 15.3939 386.766 14.6364 390.281 14.6364C392.766 14.6364 395.039 15.0227 397.099 15.7955C399.16 16.5682 400.94 17.7121 402.44 19.2273C403.94 20.7424 405.107 22.6136 405.94 24.8409C406.774 27.053 407.19 29.5909 407.19 32.4545V35.2273H376.849V28.7727H396.849C396.834 27.5909 396.554 26.5379 396.009 25.6136C395.463 24.6894 394.713 23.9697 393.759 23.4545C392.819 22.9242 391.736 22.6591 390.509 22.6591C389.266 22.6591 388.152 22.9394 387.168 23.5C386.183 24.0455 385.402 24.7955 384.827 25.75C384.251 26.6894 383.948 27.7576 383.918 28.9545V35.5227C383.918 36.947 384.198 38.197 384.759 39.2727C385.319 40.3333 386.115 41.1591 387.145 41.75C388.175 42.3409 389.402 42.6364 390.827 42.6364C391.812 42.6364 392.705 42.5 393.509 42.2273C394.312 41.9545 395.001 41.553 395.577 41.0227C396.152 40.4924 396.584 39.8409 396.872 39.0682L407.077 39.3636C406.652 41.6515 405.721 43.6439 404.281 45.3409C402.857 47.0227 400.986 48.3333 398.668 49.2727C396.349 50.197 393.668 50.6591 390.622 50.6591ZM412.866 50V15.0909H423.662V21.4545H424.026C424.662 19.1515 425.7 17.4394 427.139 16.3182C428.579 15.1818 430.253 14.6136 432.162 14.6136C432.677 14.6136 433.207 14.6515 433.753 14.7273C434.298 14.7879 434.806 14.8864 435.276 15.0227V24.6818C434.745 24.5 434.048 24.3561 433.185 24.25C432.336 24.1439 431.579 24.0909 430.912 24.0909C429.594 24.0909 428.404 24.3864 427.344 24.9773C426.298 25.553 425.473 26.3636 424.866 27.4091C424.276 28.4394 423.98 29.6515 423.98 31.0455V50H412.866Z" fill="#E2F2DA"/>
<path d="M43.4915 20.3182V21.3182H44.5941L44.4867 20.2208L43.4915 20.3182ZM32.1278 20.3182L31.1362 20.447L31.2493 21.3182H32.1278V20.3182ZM31.196 17.1591L30.3016 17.6063L30.3016 17.6063L31.196 17.1591ZM29.3324 14.75L29.9856 13.9928L29.9856 13.9928L29.3324 14.75ZM26.5824 13.2273L26.2539 14.1718L26.262 14.1746L26.2702 14.1773L26.5824 13.2273ZM17.2642 14.3409L16.7042 13.5124L16.7006 13.5148L17.2642 14.3409ZM13.5142 19.1364L12.5923 18.7489L12.5899 18.7546L13.5142 19.1364ZM13.5369 34.5L12.615 34.8875L12.6185 34.8955L13.5369 34.5ZM17.2869 39.2045L16.7358 40.0391L16.745 40.045L17.2869 39.2045ZM26.4233 40.2955L26.1282 39.34L26.1242 39.3412L26.4233 40.2955ZM29.1278 38.9091L29.745 39.6959L29.747 39.6944L29.1278 38.9091ZM31.0597 36.6591L30.1932 36.1598L30.1905 36.1646L31.0597 36.6591ZM32.1278 33.6364L32.1338 32.6364L31.2891 32.6313L31.1429 33.4633L32.1278 33.6364ZM43.4915 33.7045L44.4869 33.7997L44.591 32.7111L43.4975 32.7046L43.4915 33.7045ZM41.696 39.7955L40.8016 39.3482L40.7989 39.3537L41.696 39.7955ZM37.6278 45.2727L38.3156 45.9987L38.3189 45.9955L37.6278 45.2727ZM31.3097 49.1818L30.9461 48.2502L30.9442 48.251L31.3097 49.1818ZM11.4915 47.8636L11.0018 48.7355L11.0065 48.7382L11.4915 47.8636ZM3.62784 39.7273L4.50759 39.2518L3.62784 39.7273ZM3.6733 13.7045L2.79669 13.2233L2.79669 13.2233L3.6733 13.7045ZM30.6278 4L30.3152 4.94989L30.3207 4.95165L30.6278 4ZM36.946 7.40909L36.3096 8.18047L36.3135 8.18362L36.946 7.40909ZM43.4915 19.3182H32.1278V21.3182H43.4915V19.3182ZM33.1195 20.1894C32.9553 18.9251 32.6158 17.7625 32.0904 16.7119L30.3016 17.6063C30.7157 18.4345 30.9973 19.3779 31.1362 20.447L33.1195 20.1894ZM32.0904 16.7119C31.5634 15.6578 30.8614 14.7484 29.9856 13.9928L28.6792 15.5072C29.3488 16.0849 29.8893 16.7816 30.3016 17.6063L32.0904 16.7119ZM29.9856 13.9928C29.104 13.2322 28.0686 12.663 26.8945 12.2772L26.2702 14.1773C27.2174 14.4885 28.0153 14.9344 28.6792 15.5072L29.9856 13.9928ZM26.9109 12.2828C25.7453 11.8773 24.4732 11.6818 23.1051 11.6818V13.6818C24.2825 13.6818 25.3286 13.8499 26.2539 14.1718L26.9109 12.2828ZM23.1051 11.6818C20.6774 11.6818 18.5288 12.2792 16.7042 13.5124L17.8242 15.1694C19.2724 14.1905 21.0177 13.6818 23.1051 13.6818V11.6818ZM16.7006 13.5148C14.8966 14.7456 13.5339 16.5086 12.5923 18.7489L14.4361 19.5238C15.2521 17.5823 16.3894 16.1483 17.8278 15.167L16.7006 13.5148ZM12.5899 18.7546C11.6633 20.998 11.2188 23.6655 11.2188 26.7273H13.2188C13.2188 23.8496 13.6378 21.4566 14.4385 19.5181L12.5899 18.7546ZM11.2188 26.7273C11.2188 29.9059 11.6696 32.6381 12.615 34.8875L14.4588 34.1125C13.6466 32.1801 13.2188 29.7304 13.2188 26.7273H11.2188ZM12.6185 34.8955C13.5758 37.1185 14.9405 38.8534 16.7359 40.039L17.838 38.3701C16.4212 37.4345 15.2859 36.0331 14.4554 34.1045L12.6185 34.8955ZM16.745 40.045C18.5505 41.2092 20.6615 41.7727 23.0369 41.7727V39.7727C20.9881 39.7727 19.2658 39.2908 17.8289 38.3641L16.745 40.045ZM23.0369 41.7727C24.3642 41.7727 25.5958 41.6028 26.7224 41.2497L26.1242 39.3412C25.2205 39.6245 24.1945 39.7727 23.0369 39.7727V41.7727ZM26.7184 41.2509C27.854 40.9002 28.8671 40.3845 29.745 39.6959L28.5107 38.1222C27.8431 38.6458 27.0532 39.0543 26.1282 39.34L26.7184 41.2509ZM29.747 39.6944C30.637 38.9926 31.3655 38.1436 31.9288 37.1536L30.1905 36.1646C29.7538 36.9321 29.1945 37.5831 28.5087 38.1238L29.747 39.6944ZM31.9261 37.1584C32.5052 36.1535 32.8977 35.0336 33.1128 33.8094L31.1429 33.4633C30.964 34.4815 30.6445 35.3768 30.1932 36.1598L31.9261 37.1584ZM32.1218 34.6363L43.4855 34.7045L43.4975 32.7046L32.1338 32.6364L32.1218 34.6363ZM42.496 33.6094C42.3117 35.5379 41.751 37.4495 40.8016 39.3482L42.5905 40.2427C43.6411 38.1414 44.2773 35.9924 44.4869 33.7997L42.496 33.6094ZM40.7989 39.3537C39.8694 41.2413 38.5856 42.9735 36.9368 44.5499L38.3189 45.9955C40.1247 44.269 41.553 42.3496 42.5932 40.2372L40.7989 39.3537ZM36.9401 44.5468C35.3173 46.0842 33.3252 47.3218 30.9461 48.2502L31.6732 50.1134C34.2639 49.1024 36.4838 47.734 38.3156 45.9987L36.9401 44.5468ZM30.9442 48.251C28.6121 49.1667 25.9065 49.6364 22.8097 49.6364V51.6364C26.1067 51.6364 29.0678 51.1364 31.6751 50.1126L30.9442 48.251ZM22.8097 49.6364C18.749 49.6364 15.1462 48.7469 11.9764 46.9891L11.0065 48.7382C14.5034 50.6774 18.4461 51.6364 22.8097 51.6364V49.6364ZM11.9812 46.9917C8.83849 45.2267 6.34789 42.6571 4.50759 39.2518L2.74809 40.2027C4.75628 43.9187 7.5081 46.7733 11.0018 48.7355L11.9812 46.9917ZM4.50759 39.2518C2.68029 35.8706 1.74148 31.7099 1.74148 26.7273H-0.258523C-0.258523 31.9568 0.726909 36.4627 2.74809 40.2027L4.50759 39.2518ZM1.74148 26.7273C1.74148 21.7312 2.69477 17.5653 4.5499 14.1857L2.79669 13.2233C0.742733 16.965 -0.258523 21.4809 -0.258523 26.7273H1.74148ZM4.5499 14.1857C6.41986 10.7792 8.93276 8.21632 12.0901 6.46544L11.1201 4.71638C7.6108 6.66247 4.83582 9.50864 2.79669 13.2233L4.5499 14.1857ZM12.0901 6.46544C15.2625 4.70616 18.8281 3.81818 22.8097 3.81818V1.81818C18.5185 1.81818 14.6143 2.77868 11.1201 4.71638L12.0901 6.46544ZM22.8097 3.81818C25.5341 3.81818 28.0333 4.19887 30.3152 4.94988L30.9405 3.05012C28.4345 2.22537 25.7216 1.81818 22.8097 1.81818V3.81818ZM30.3207 4.95165C32.6026 5.68823 34.5952 6.76608 36.3096 8.18046L37.5824 6.63771C35.6604 5.0521 33.4409 3.85722 30.935 3.04835L30.3207 4.95165ZM36.3135 8.18362C38.0229 9.57963 39.4158 11.2984 40.4923 13.3508L42.2634 12.4219C41.0672 10.141 39.5055 8.20825 37.5786 6.63456L36.3135 8.18362ZM40.4923 13.3508C41.5607 15.388 42.2342 17.7375 42.4962 20.4155L44.4867 20.2208C44.2033 17.3231 43.4677 14.718 42.2634 12.4219L40.4923 13.3508ZM56.7699 48.4091L56.2694 49.2749L56.2754 49.2783L56.7699 48.4091ZM50.7017 42.0909L49.8143 42.552L49.8174 42.5579L50.7017 42.0909ZM50.7017 23.2273L49.8164 22.7623L49.8154 22.7642L50.7017 23.2273ZM56.7699 16.9091L57.2666 17.777L57.2682 17.7761L56.7699 16.9091ZM75.6562 16.9091L75.1558 17.7749L75.1617 17.7783L75.6562 16.9091ZM81.7244 23.2273L80.837 23.6883L80.8402 23.6942L81.7244 23.2273ZM81.7244 42.0909L80.8391 41.626L80.8381 41.6278L81.7244 42.0909ZM75.6562 48.4091L76.1529 49.277L76.1545 49.2761L75.6562 48.4091ZM69.679 41.0455L69.0161 40.2967L69.0161 40.2967L69.679 41.0455ZM71.7926 37.6364L70.8469 37.3113L70.8439 37.3201L71.7926 37.6364ZM71.7926 27.5L70.8439 27.8162L70.8469 27.8251L71.7926 27.5ZM69.679 24.0909L70.3418 23.3421L70.3418 23.3421L69.679 24.0909ZM62.7926 24.0909L62.1418 23.3316L62.1358 23.3368L62.7926 24.0909ZM60.6335 27.5L59.6878 27.1749L59.6848 27.1838L60.6335 27.5ZM60.6335 37.6364L59.6848 37.9526L59.6878 37.9614L60.6335 37.6364ZM62.7926 41.0455L62.1358 41.7996L62.1418 41.8047L62.7926 41.0455ZM66.2244 49.6591C62.695 49.6591 59.7215 48.9379 57.2644 47.5399L56.2754 49.2783C59.091 50.8803 62.4205 51.6591 66.2244 51.6591V49.6591ZM57.2703 47.5433C54.8133 46.1231 52.923 44.1558 51.586 41.6239L49.8174 42.5579C51.3289 45.4199 53.484 47.6648 56.2694 49.2749L57.2703 47.5433ZM51.5891 41.6299C50.2656 39.0825 49.5881 36.1016 49.5881 32.6591H47.5881C47.5881 36.3681 48.3196 39.675 49.8143 42.5519L51.5891 41.6299ZM49.5881 32.6591C49.5881 29.2005 50.266 26.2207 51.588 23.6903L49.8154 22.7642C48.3193 25.6278 47.5881 28.9359 47.5881 32.6591H49.5881ZM51.5871 23.6922C52.9241 21.1461 54.8131 19.181 57.2666 17.777L56.2732 16.0412C53.4842 17.6372 51.3278 19.8842 49.8164 22.7623L51.5871 23.6922ZM57.2682 17.7761C59.7245 16.3644 62.6967 15.6364 66.2244 15.6364V13.6364C62.4189 13.6364 59.088 14.4235 56.2716 16.0421L57.2682 17.7761ZM66.2244 15.6364C69.7524 15.6364 72.7159 16.3645 75.1558 17.7749L76.1567 16.0433C73.3542 14.4234 70.0298 13.6364 66.2244 13.6364V15.6364ZM75.1617 17.7783C77.6292 19.1822 79.5161 21.1459 80.8371 23.6883L82.6118 22.7662C81.1146 19.8844 78.956 17.636 76.1508 16.0399L75.1617 17.7783ZM80.8402 23.6942C82.176 26.2238 82.8608 29.2021 82.8608 32.6591H84.8608C84.8608 28.9343 84.1214 25.6247 82.6087 22.7603L80.8402 23.6942ZM82.8608 32.6591C82.8608 36.1 82.1763 39.0795 80.8391 41.626L82.6098 42.5558C84.121 39.6781 84.8608 36.3697 84.8608 32.6591H82.8608ZM80.8381 41.6278C79.5172 44.1561 77.629 46.1219 75.158 47.5421L76.1545 49.2761C78.9562 47.6659 81.1135 45.4197 82.6108 42.554L80.8381 41.6278ZM75.1596 47.5412C72.7189 48.9379 69.754 49.6591 66.2244 49.6591V51.6591C70.0282 51.6591 73.3512 50.8803 76.1529 49.277L75.1596 47.5412ZM66.2926 43.2727C67.8489 43.2727 69.2194 42.7878 70.3418 41.7942L69.0161 40.2967C68.29 40.9395 67.403 41.2727 66.2926 41.2727V43.2727ZM70.3418 41.7942C71.426 40.8344 72.2142 39.5339 72.7413 37.9526L70.8439 37.3201C70.4014 38.6479 69.7804 39.6201 69.0161 40.2967L70.3418 41.7942ZM72.7383 37.9614C73.2817 36.3805 73.5426 34.585 73.5426 32.5909H71.5426C71.5426 34.415 71.3035 35.9831 70.8469 37.3113L72.7383 37.9614ZM73.5426 32.5909C73.5426 30.5685 73.2822 28.7573 72.7383 27.1749L70.8469 27.8251C71.303 29.1518 71.5426 30.7346 71.5426 32.5909H73.5426ZM72.7413 27.1838C72.2142 25.6024 71.426 24.302 70.3418 23.3421L69.0161 24.8397C69.7804 25.5162 70.4014 26.4885 70.8439 27.8162L72.7413 27.1838ZM70.3418 23.3421C69.2194 22.3486 67.8489 21.8636 66.2926 21.8636V23.8636C67.403 23.8636 68.29 24.1969 69.0161 24.8397L70.3418 23.3421ZM66.2926 21.8636C64.6999 21.8636 63.2956 22.3427 62.1418 23.3317L63.4434 24.8502C64.1987 24.2028 65.1277 23.8636 66.2926 23.8636V21.8636ZM62.1358 23.3368C61.0365 24.2943 60.2316 25.5931 59.6878 27.1749L61.5792 27.8251C62.0355 26.4978 62.67 25.5238 63.4494 24.845L62.1358 23.3368ZM59.6848 27.1838C59.1584 28.7632 58.9062 30.5712 58.9062 32.5909H60.9062C60.9062 30.7319 61.139 29.1459 61.5822 27.8162L59.6848 27.1838ZM58.9062 32.5909C58.9062 34.5822 59.1588 36.3746 59.6848 37.9526L61.5822 37.3201C61.1385 35.989 60.9062 34.4178 60.9062 32.5909H58.9062ZM59.6878 37.9614C60.2316 39.5432 61.0365 40.842 62.1358 41.7995L63.4494 40.2914C62.67 39.6125 62.0355 38.6386 61.5792 37.3113L59.6878 37.9614ZM62.1418 41.8047C63.2956 42.7937 64.6999 43.2727 66.2926 43.2727V41.2727C65.1277 41.2727 64.1987 40.9336 63.4434 40.2862L62.1418 41.8047ZM100.668 3.45454H101.668V2.45454H100.668V3.45454ZM100.668 50V51H101.668V50H100.668ZM89.554 50H88.554V51H89.554V50ZM89.554 3.45454V2.45454H88.554V3.45454H89.554ZM99.6676 3.45454V50H101.668V3.45454H99.6676ZM100.668 49H89.554V51H100.668V49ZM90.554 50V3.45454H88.554V50H90.554ZM89.554 4.45454H100.668V2.45454H89.554V4.45454ZM118.855 3.45454H119.855V2.45454H118.855V3.45454ZM118.855 50V51H119.855V50H118.855ZM107.741 50H106.741V51H107.741V50ZM107.741 3.45454V2.45454H106.741V3.45454H107.741ZM117.855 3.45454V50H119.855V3.45454H117.855ZM118.855 49H107.741V51H118.855V49ZM108.741 50V3.45454H106.741V50H108.741ZM107.741 4.45454H118.855V2.45454H107.741V4.45454ZM132.793 48.5L132.31 49.3756L132.316 49.3789L132.793 48.5ZM126.702 42.2955L125.815 42.7585L125.819 42.7645L126.702 42.2955ZM126.724 23.2273L127.609 23.6942L127.61 23.6922L126.724 23.2273ZM132.747 16.9091L133.248 17.7745L133.252 17.7723L132.747 16.9091ZM148.724 15.7955L149.076 14.8591L149.076 14.8591L148.724 15.7955ZM157.565 24.8409L156.629 25.1913L156.63 25.1934L157.565 24.8409ZM158.815 35.2273V36.2273H159.815V35.2273H158.815ZM128.474 35.2273H127.474V36.2273H128.474V35.2273ZM128.474 28.7727V27.7727H127.474V28.7727H128.474ZM148.474 28.7727V29.7727H149.487L149.474 28.7599L148.474 28.7727ZM145.384 23.4545L144.892 24.3254L144.9 24.33L144.909 24.3346L145.384 23.4545ZM138.793 23.5L139.277 24.3749L139.287 24.3691L138.793 23.5ZM136.452 25.75L137.304 26.2726L137.308 26.2665L136.452 25.75ZM135.543 28.9545L134.543 28.9292L134.543 28.9419V28.9545H135.543ZM136.384 39.2727L135.497 39.7349L135.499 39.74L136.384 39.2727ZM138.77 41.75L138.272 42.6175L138.272 42.6175L138.77 41.75ZM145.134 42.2273L145.455 43.1742L145.455 43.1742L145.134 42.2273ZM147.202 41.0227L147.879 41.7583L147.879 41.7583L147.202 41.0227ZM148.497 39.0682L148.526 38.0686L147.81 38.0479L147.56 38.7191L148.497 39.0682ZM158.702 39.3636L159.685 39.546L159.898 38.3978L158.731 38.3641L158.702 39.3636ZM155.906 45.3409L155.144 44.6941L155.143 44.6947L155.906 45.3409ZM150.293 49.2727L150.663 50.2016L150.668 50.1995L150.293 49.2727ZM142.247 49.6591C138.727 49.6591 135.747 48.9659 133.27 47.6211L132.316 49.3789C135.141 50.9128 138.464 51.6591 142.247 51.6591V49.6591ZM133.276 47.6244C130.811 46.2645 128.919 44.3383 127.585 41.8264L125.819 42.7645C127.333 45.6162 129.502 47.8264 132.31 49.3756L133.276 47.6244ZM127.588 41.8324C126.268 39.3065 125.588 36.2677 125.588 32.6818H123.588C123.588 36.5202 124.317 39.8905 125.815 42.7585L127.588 41.8324ZM125.588 32.6818C125.588 29.2089 126.273 26.2232 127.609 23.6942L125.84 22.7603C124.327 25.6253 123.588 28.9426 123.588 32.6818H125.588ZM127.61 23.6922C128.948 21.1431 130.825 19.1777 133.248 17.7745L132.246 16.0437C129.488 17.6405 127.349 19.8872 125.839 22.7623L127.61 23.6922ZM133.252 17.7723C135.665 16.361 138.538 15.6364 141.906 15.6364V13.6364C138.244 13.6364 135.011 14.4268 132.242 16.0459L133.252 17.7723ZM141.906 15.6364C144.287 15.6364 146.439 16.0062 148.373 16.7318L149.076 14.8591C146.889 14.0392 144.496 13.6364 141.906 13.6364V15.6364ZM148.373 16.7318C150.303 17.4555 151.96 18.5217 153.355 19.9308L154.776 18.5237C153.171 16.9026 151.267 15.6809 149.076 14.8591L148.373 16.7318ZM153.355 19.9308C154.744 21.3345 155.839 23.0811 156.629 25.1913L158.502 24.4905C157.625 22.1462 156.386 20.1503 154.776 18.5237L153.355 19.9308ZM156.63 25.1934C157.413 27.2719 157.815 29.6866 157.815 32.4545H159.815C159.815 29.4952 159.385 26.8342 158.501 24.4884L156.63 25.1934ZM157.815 32.4545V35.2273H159.815V32.4545H157.815ZM158.815 34.2273H128.474V36.2273H158.815V34.2273ZM129.474 35.2273V28.7727H127.474V35.2273H129.474ZM128.474 29.7727H148.474V27.7727H128.474V29.7727ZM149.474 28.7599C149.457 27.4218 149.138 26.1947 148.495 25.1054L146.772 26.1219C147.22 26.881 147.461 27.76 147.475 28.7855L149.474 28.7599ZM148.495 25.1054C147.856 24.0226 146.971 23.1752 145.858 22.5745L144.909 24.3346C145.705 24.7642 146.32 25.3562 146.772 26.1219L148.495 25.1054ZM145.875 22.5837C144.766 21.9576 143.509 21.6591 142.134 21.6591V23.6591C143.213 23.6591 144.122 23.8908 144.892 24.3254L145.875 22.5837ZM142.134 21.6591C140.735 21.6591 139.448 21.9764 138.298 22.6309L139.287 24.3691C140.107 23.9024 141.047 23.6591 142.134 23.6591V21.6591ZM138.308 22.6252C137.172 23.2546 136.263 24.1275 135.595 25.2335L137.308 26.2665C137.792 25.4634 138.444 24.8363 139.277 24.3748L138.308 22.6252ZM135.599 25.2274C134.924 26.3296 134.577 27.5722 134.543 28.9292L136.542 28.9799C136.569 27.943 136.828 27.0492 137.304 26.2726L135.599 25.2274ZM134.543 28.9545V35.5227H136.543V28.9545H134.543ZM134.543 35.5227C134.543 37.0799 134.85 38.4935 135.497 39.7349L137.27 38.8106C136.796 37.9004 136.543 36.8141 136.543 35.5227H134.543ZM135.499 39.74C136.148 40.9661 137.076 41.9314 138.272 42.6175L139.267 40.8825C138.403 40.3868 137.741 39.7005 137.268 38.8054L135.499 39.74ZM138.272 42.6175C139.482 43.311 140.888 43.6364 142.452 43.6364V41.6364C141.167 41.6364 140.119 41.3708 139.267 40.8825L138.272 42.6175ZM142.452 43.6364C143.529 43.6364 144.533 43.4872 145.455 43.1742L144.812 41.2804C144.128 41.5128 143.344 41.6364 142.452 41.6364V43.6364ZM145.455 43.1742C146.379 42.8604 147.193 42.3907 147.879 41.7583L146.524 40.2872C146.059 40.7153 145.494 41.0487 144.812 41.2804L145.455 43.1742ZM147.879 41.7583C148.577 41.1157 149.094 40.3293 149.434 39.4173L147.56 38.7191C147.324 39.3525 146.978 39.8692 146.524 40.2872L147.879 41.7583ZM148.468 40.0678L158.673 40.3632L158.731 38.3641L148.526 38.0686L148.468 40.0678ZM157.718 39.1813C157.325 41.3059 156.465 43.1362 155.144 44.6941L156.669 45.9878C158.226 44.1517 159.23 41.9971 159.685 39.546L157.718 39.1813ZM155.143 44.6947C153.837 46.2372 152.106 47.459 149.917 48.3459L150.668 50.1995C153.116 49.2076 155.127 47.8083 156.669 45.9872L155.143 44.6947ZM149.922 48.3438C147.745 49.212 145.193 49.6591 142.247 49.6591V51.6591C145.392 51.6591 148.204 51.1819 150.663 50.2016L149.922 48.3438ZM172.241 62.4318L171.877 63.3631L171.877 63.3631L172.241 62.4318ZM166.673 58.6364L165.907 59.2794L165.907 59.2794L166.673 58.6364ZM164.241 53.1818L164.185 52.1834L163.107 52.244L163.25 53.315L164.241 53.1818ZM174.764 52.5909L175.728 52.3243L175.513 51.5473L174.708 51.5925L174.764 52.5909ZM175.855 54.4545L175.148 55.1617L175.158 55.1715L175.855 54.4545ZM177.969 55.6818L177.653 56.6305L177.657 56.6321L177.969 55.6818ZM185.673 54.75L185.084 53.9416L185.073 53.95L185.673 54.75ZM187.514 43.9091H188.514V42.9091H187.514V43.9091ZM187.128 43.9091V42.9091H186.456L186.202 43.531L187.128 43.9091ZM185.128 46.7955L185.816 47.5208L185.816 47.5208L185.128 46.7955ZM181.787 48.7955L181.445 47.8557L181.442 47.8569L181.787 48.7955ZM170.241 47.75L169.747 48.6194L169.755 48.6236L170.241 47.75ZM165.173 42.2045L164.279 42.6518L164.282 42.6582L165.173 42.2045ZM165.241 22.4318L166.138 22.8749L166.139 22.8729L165.241 22.4318ZM170.355 16.5455L169.841 15.688L169.838 15.6896L170.355 16.5455ZM181.901 15.5909L181.462 16.4896L181.474 16.4955L181.901 15.5909ZM185.151 18L184.393 18.6527L184.393 18.6527L185.151 18ZM187.082 21.0682L186.159 21.4509L186.414 22.0682H187.082V21.0682ZM187.401 21.0682V22.0682H188.401V21.0682H187.401ZM187.401 15.0909V14.0909H186.401V15.0909H187.401ZM198.469 15.0909H199.469V14.0909H198.469V15.0909ZM190.014 62.2273L189.649 61.2963L189.645 61.2981L190.014 62.2273ZM186.764 37.2955L187.697 37.6559L187.697 37.6559L186.764 37.2955ZM186.764 27.6136L185.824 27.9546L185.829 27.967L186.764 27.6136ZM184.56 24.4318L183.946 25.2212L183.952 25.2258L184.56 24.4318ZM177.605 24.4545L178.227 25.2378L177.605 24.4545ZM175.423 27.6591L174.483 27.3182L174.481 27.3241L175.423 27.6591ZM177.605 40.3636L177.001 41.1606L177.007 41.1652L177.605 40.3636ZM180.764 62.8182C177.534 62.8182 174.824 62.3678 172.606 61.5005L171.877 63.3631C174.387 64.3444 177.358 64.8182 180.764 64.8182V62.8182ZM172.606 61.5005C170.365 60.6245 168.66 59.4468 167.439 57.9933L165.907 59.2794C167.384 61.038 169.39 62.3907 171.877 63.3631L172.606 61.5005ZM167.439 57.9933C166.209 56.5288 165.479 54.8865 165.233 53.0487L163.25 53.315C163.549 55.5378 164.44 57.5318 165.907 59.2794L167.439 57.9933ZM164.298 54.1802L174.82 53.5893L174.708 51.5925L164.185 52.1834L164.298 54.1802ZM173.8 52.8575C174.044 53.7388 174.497 54.5111 175.148 55.1617L176.562 53.7474C176.152 53.3374 175.878 52.8673 175.728 52.3243L173.8 52.8575ZM175.158 55.1715C175.831 55.8254 176.674 56.3043 177.653 56.6305L178.285 54.7331C177.536 54.4836 176.971 54.1443 176.552 53.7376L175.158 55.1715ZM177.657 56.6321C178.66 56.9606 179.8 57.1136 181.06 57.1136V55.1136C179.956 55.1136 179.035 54.9788 178.28 54.7315L177.657 56.6321ZM181.06 57.1136C183.089 57.1136 184.851 56.6164 186.273 55.55L185.073 53.95C184.071 54.7018 182.758 55.1136 181.06 55.1136V57.1136ZM186.262 55.5583C187.854 54.3985 188.514 52.4477 188.514 50.0455H186.514C186.514 52.1281 185.947 53.3136 185.085 53.9417L186.262 55.5583ZM188.514 50.0455V43.9091H186.514V50.0455H188.514ZM187.514 42.9091H187.128V44.9091H187.514V42.9091ZM186.202 43.531C185.82 44.4676 185.237 45.3132 184.439 46.0701L185.816 47.5208C186.807 46.5807 187.557 45.5021 188.054 44.2872L186.202 43.531ZM184.439 46.0701C183.659 46.8109 182.669 47.4107 181.445 47.8557L182.129 49.7352C183.572 49.2105 184.809 48.477 185.816 47.5208L184.439 46.0701ZM181.442 47.8569C180.255 48.2933 178.861 48.5227 177.241 48.5227V50.5227C179.046 50.5227 180.682 50.2673 182.132 49.734L181.442 47.8569ZM177.241 48.5227C174.858 48.5227 172.693 47.9713 170.728 46.8764L169.755 48.6236C172.032 49.8924 174.534 50.5227 177.241 50.5227V48.5227ZM170.736 46.8806C168.825 45.7949 167.263 44.1047 166.064 41.7509L164.282 42.6582C165.629 45.3044 167.445 47.3111 169.747 48.6194L170.736 46.8806ZM166.068 41.7573C164.902 39.4257 164.287 36.3585 164.287 32.5H162.287C162.287 36.5506 162.93 39.9531 164.279 42.6518L166.068 41.7573ZM164.287 32.5C164.287 28.522 164.924 25.3309 166.138 22.8749L164.345 21.9887C162.953 24.8055 162.287 28.3264 162.287 32.5H164.287ZM166.139 22.8729C167.375 20.3583 168.96 18.5567 170.872 17.4013L169.838 15.6896C167.538 17.0797 165.714 19.2023 164.344 21.9908L166.139 22.8729ZM170.87 17.4029C172.838 16.2221 174.941 15.6364 177.196 15.6364V13.6364C174.573 13.6364 172.115 14.3234 169.841 15.688L170.87 17.4029ZM177.196 15.6364C178.916 15.6364 180.327 15.9351 181.462 16.4895L182.339 14.6923C180.868 13.974 179.142 13.6364 177.196 13.6364V15.6364ZM181.474 16.4955C182.681 17.0642 183.647 17.7863 184.393 18.6527L185.908 17.3473C184.958 16.244 183.757 15.3601 182.327 14.6863L181.474 16.4955ZM184.393 18.6527C185.181 19.5675 185.765 20.5006 186.159 21.4509L188.006 20.6854C187.521 19.5145 186.817 18.4022 185.908 17.3473L184.393 18.6527ZM187.082 22.0682H187.401V20.0682H187.082V22.0682ZM188.401 21.0682V15.0909H186.401V21.0682H188.401ZM187.401 16.0909H198.469V14.0909H187.401V16.0909ZM197.469 15.0909V50.1364H199.469V15.0909H197.469ZM197.469 50.1364C197.469 52.9169 196.773 55.1928 195.434 57.0233L197.049 58.204C198.68 55.9738 199.469 53.2649 199.469 50.1364H197.469ZM195.434 57.0233C194.076 58.8799 192.164 60.3102 189.649 61.2963L190.379 63.1583C193.197 62.0534 195.437 60.4079 197.049 58.204L195.434 57.0233ZM189.645 61.2981C187.118 62.3029 184.165 62.8182 180.764 62.8182V64.8182C184.364 64.8182 187.577 64.2729 190.384 63.1565L189.645 61.2981ZM181.105 42.4318C182.639 42.4318 184.008 42.0229 185.158 41.1652L183.962 39.5621C183.202 40.1286 182.268 40.4318 181.105 40.4318V42.4318ZM185.158 41.1652C186.291 40.3197 187.128 39.1293 187.697 37.6559L185.831 36.9351C185.37 38.1282 184.737 38.9833 183.962 39.5621L185.158 41.1652ZM187.697 37.6559C188.268 36.1785 188.537 34.4513 188.537 32.5H186.537C186.537 34.2759 186.291 35.7457 185.831 36.9351L187.697 37.6559ZM188.537 32.5C188.537 30.5196 188.268 28.765 187.7 27.2602L185.829 27.967C186.291 29.1896 186.537 30.6925 186.537 32.5H188.537ZM187.704 27.2727C187.152 25.7507 186.317 24.5179 185.168 23.6378L183.952 25.2258C184.742 25.8305 185.376 26.719 185.824 27.9545L187.704 27.2727ZM185.174 23.6425C184.023 22.7478 182.649 22.3182 181.105 22.3182V24.3182C182.258 24.3182 183.187 24.631 183.946 25.2212L185.174 23.6425ZM181.105 22.3182C179.532 22.3182 178.138 22.7551 176.983 23.6713L178.227 25.2378C178.981 24.6389 179.921 24.3182 181.105 24.3182V22.3182ZM176.983 23.6713C175.857 24.5654 175.033 25.8009 174.483 27.3182L176.363 28C176.813 26.7597 177.444 25.8588 178.227 25.2378L176.983 23.6713ZM174.481 27.3241C173.949 28.8212 173.696 30.5534 173.696 32.5H175.696C175.696 30.7193 175.928 29.2243 176.366 27.9941L174.481 27.3241ZM173.696 32.5C173.696 34.4485 173.957 36.1723 174.51 37.6466L176.382 36.9443C175.935 35.752 175.696 34.2788 175.696 32.5H173.696ZM174.51 37.6466C175.062 39.1198 175.882 40.3124 177.001 41.1605L178.209 39.5667C177.449 38.9906 176.83 38.1377 176.382 36.9443L174.51 37.6466ZM177.007 41.1652C178.161 42.0258 179.546 42.4318 181.105 42.4318V40.4318C179.906 40.4318 178.959 40.1257 178.203 39.5621L177.007 41.1652ZM212.418 48.5L211.935 49.3756L211.941 49.3789L212.418 48.5ZM206.327 42.2955L205.44 42.7585L205.444 42.7645L206.327 42.2955ZM206.349 23.2273L207.234 23.6942L207.235 23.6922L206.349 23.2273ZM212.372 16.9091L212.873 17.7745L212.877 17.7723L212.372 16.9091ZM228.349 15.7955L228.701 14.8591L228.701 14.8591L228.349 15.7955ZM237.19 24.8409L236.254 25.1913L236.255 25.1934L237.19 24.8409ZM238.44 35.2273V36.2273H239.44V35.2273H238.44ZM208.099 35.2273H207.099V36.2273H208.099V35.2273ZM208.099 28.7727V27.7727H207.099V28.7727H208.099ZM228.099 28.7727V29.7727H229.112L229.099 28.7599L228.099 28.7727ZM225.009 23.4545L224.517 24.3254L224.525 24.33L224.534 24.3346L225.009 23.4545ZM218.418 23.5L218.902 24.3749L218.912 24.3691L218.418 23.5ZM216.077 25.75L216.929 26.2726L216.933 26.2665L216.077 25.75ZM215.168 28.9545L214.168 28.9292L214.168 28.9419V28.9545H215.168ZM216.009 39.2727L215.122 39.7349L215.124 39.74L216.009 39.2727ZM218.395 41.75L217.897 42.6175L217.897 42.6175L218.395 41.75ZM224.759 42.2273L225.08 43.1742L225.08 43.1742L224.759 42.2273ZM226.827 41.0227L227.504 41.7583L227.504 41.7583L226.827 41.0227ZM228.122 39.0682L228.151 38.0686L227.435 38.0479L227.185 38.7191L228.122 39.0682ZM238.327 39.3636L239.31 39.546L239.523 38.3978L238.356 38.3641L238.327 39.3636ZM235.531 45.3409L234.769 44.6941L234.768 44.6947L235.531 45.3409ZM229.918 49.2727L230.288 50.2016L230.293 50.1995L229.918 49.2727ZM221.872 49.6591C218.352 49.6591 215.372 48.9659 212.895 47.6211L211.941 49.3789C214.766 50.9128 218.089 51.6591 221.872 51.6591V49.6591ZM212.901 47.6244C210.436 46.2645 208.544 44.3383 207.21 41.8264L205.444 42.7645C206.958 45.6162 209.127 47.8264 211.935 49.3756L212.901 47.6244ZM207.213 41.8324C205.893 39.3065 205.213 36.2677 205.213 32.6818H203.213C203.213 36.5202 203.942 39.8905 205.44 42.7585L207.213 41.8324ZM205.213 32.6818C205.213 29.2089 205.898 26.2232 207.234 23.6942L205.465 22.7603C203.952 25.6253 203.213 28.9426 203.213 32.6818H205.213ZM207.235 23.6922C208.573 21.1431 210.45 19.1777 212.873 17.7745L211.871 16.0437C209.113 17.6405 206.974 19.8872 205.464 22.7623L207.235 23.6922ZM212.877 17.7723C215.29 16.361 218.163 15.6364 221.531 15.6364V13.6364C217.869 13.6364 214.636 14.4268 211.867 16.0459L212.877 17.7723ZM221.531 15.6364C223.912 15.6364 226.064 16.0062 227.998 16.7318L228.701 14.8591C226.514 14.0392 224.121 13.6364 221.531 13.6364V15.6364ZM227.998 16.7318C229.928 17.4555 231.585 18.5217 232.98 19.9308L234.401 18.5237C232.796 16.9026 230.892 15.6809 228.701 14.8591L227.998 16.7318ZM232.98 19.9308C234.369 21.3345 235.464 23.0811 236.254 25.1913L238.127 24.4905C237.25 22.1462 236.011 20.1503 234.401 18.5237L232.98 19.9308ZM236.255 25.1934C237.038 27.2719 237.44 29.6866 237.44 32.4545H239.44C239.44 29.4952 239.01 26.8342 238.126 24.4884L236.255 25.1934ZM237.44 32.4545V35.2273H239.44V32.4545H237.44ZM238.44 34.2273H208.099V36.2273H238.44V34.2273ZM209.099 35.2273V28.7727H207.099V35.2273H209.099ZM208.099 29.7727H228.099V27.7727H208.099V29.7727ZM229.099 28.7599C229.082 27.4218 228.763 26.1947 228.12 25.1054L226.397 26.1219C226.845 26.881 227.086 27.76 227.1 28.7855L229.099 28.7599ZM228.12 25.1054C227.481 24.0226 226.596 23.1752 225.483 22.5745L224.534 24.3346C225.33 24.7642 225.945 25.3562 226.397 26.1219L228.12 25.1054ZM225.5 22.5837C224.391 21.9576 223.134 21.6591 221.759 21.6591V23.6591C222.838 23.6591 223.747 23.8908 224.517 24.3254L225.5 22.5837ZM221.759 21.6591C220.36 21.6591 219.073 21.9764 217.923 22.6309L218.912 24.3691C219.732 23.9024 220.672 23.6591 221.759 23.6591V21.6591ZM217.933 22.6252C216.797 23.2546 215.888 24.1275 215.22 25.2335L216.933 26.2665C217.417 25.4634 218.069 24.8363 218.902 24.3748L217.933 22.6252ZM215.224 25.2274C214.549 26.3296 214.202 27.5722 214.168 28.9292L216.167 28.9799C216.194 27.943 216.453 27.0492 216.929 26.2726L215.224 25.2274ZM214.168 28.9545V35.5227H216.168V28.9545H214.168ZM214.168 35.5227C214.168 37.0799 214.475 38.4935 215.122 39.7349L216.895 38.8106C216.421 37.9004 216.168 36.8141 216.168 35.5227H214.168ZM215.124 39.74C215.773 40.9661 216.701 41.9314 217.897 42.6175L218.892 40.8825C218.028 40.3868 217.366 39.7005 216.893 38.8054L215.124 39.74ZM217.897 42.6175C219.107 43.311 220.513 43.6364 222.077 43.6364V41.6364C220.792 41.6364 219.744 41.3708 218.892 40.8825L217.897 42.6175ZM222.077 43.6364C223.154 43.6364 224.158 43.4872 225.08 43.1742L224.437 41.2804C223.753 41.5128 222.969 41.6364 222.077 41.6364V43.6364ZM225.08 43.1742C226.004 42.8604 226.818 42.3907 227.504 41.7583L226.149 40.2872C225.684 40.7153 225.119 41.0487 224.437 41.2804L225.08 43.1742ZM227.504 41.7583C228.202 41.1157 228.719 40.3293 229.059 39.4173L227.185 38.7191C226.949 39.3525 226.603 39.8692 226.149 40.2872L227.504 41.7583ZM228.093 40.0678L238.298 40.3632L238.356 38.3641L228.151 38.0686L228.093 40.0678ZM237.343 39.1813C236.95 41.3059 236.09 43.1362 234.769 44.6941L236.294 45.9878C237.851 44.1517 238.855 41.9971 239.31 39.546L237.343 39.1813ZM234.768 44.6947C233.462 46.2372 231.731 47.459 229.542 48.3459L230.293 50.1995C232.741 49.2076 234.752 47.8083 236.294 45.9872L234.768 44.6947ZM229.547 48.3438C227.37 49.212 224.818 49.6591 221.872 49.6591V51.6591C225.017 51.6591 227.829 51.1819 230.288 50.2016L229.547 48.3438ZM257.866 50H256.866V51H257.866V50ZM257.866 3.45454V2.45454H256.866V3.45454H257.866ZM269.116 3.45454H270.116V2.45454H269.116V3.45454ZM269.116 40.8636H268.116V41.8636H269.116V40.8636ZM288.48 40.8636H289.48V39.8636H288.48V40.8636ZM288.48 50V51H289.48V50H288.48ZM258.866 50V3.45454H256.866V50H258.866ZM257.866 4.45454H269.116V2.45454H257.866V4.45454ZM268.116 3.45454V40.8636H270.116V3.45454H268.116ZM269.116 41.8636H288.48V39.8636H269.116V41.8636ZM287.48 40.8636V50H289.48V40.8636H287.48ZM288.48 49H257.866V51H288.48V49ZM294.304 50H293.304V51H294.304V50ZM294.304 15.0909V14.0909H293.304V15.0909H294.304ZM305.418 15.0909H306.418V14.0909H305.418V15.0909ZM305.418 50V51H306.418V50H305.418ZM295.849 9.47727L295.167 10.2087L295.173 10.2136L295.849 9.47727ZM295.849 1.97727L296.526 2.71362L296.531 2.70866L295.849 1.97727ZM303.895 1.97727L303.208 2.70408L303.218 2.7136L303.895 1.97727ZM303.895 9.47727L304.576 10.209L304.577 10.2087L303.895 9.47727ZM295.304 50V15.0909H293.304V50H295.304ZM294.304 16.0909H305.418V14.0909H294.304V16.0909ZM304.418 15.0909V50H306.418V15.0909H304.418ZM305.418 49H294.304V51H305.418V49ZM299.872 10.0227C298.555 10.0227 297.458 9.59707 296.526 8.74094L295.173 10.2136C296.484 11.4181 298.068 12.0227 299.872 12.0227V10.0227ZM296.531 8.74589C295.603 7.88039 295.168 6.8837 295.168 5.70454H293.168C293.168 7.46478 293.853 8.98324 295.167 10.2087L296.531 8.74589ZM295.168 5.70454C295.168 4.54435 295.6 3.56455 296.526 2.7136L295.173 1.24094C293.856 2.4506 293.168 3.95564 293.168 5.70454H295.168ZM296.531 2.70866C297.464 1.83924 298.56 1.40909 299.872 1.40909V-0.590912C298.063 -0.590912 296.477 0.0243897 295.167 1.24589L296.531 2.70866ZM299.872 1.40909C301.202 1.40909 302.295 1.84079 303.208 2.70401L304.582 1.25054C303.283 0.0228407 301.693 -0.590912 299.872 -0.590912V1.40909ZM303.218 2.7136C304.144 3.56455 304.577 4.54435 304.577 5.70454H306.577C306.577 3.95564 305.888 2.4506 304.572 1.24094L303.218 2.7136ZM304.577 5.70454C304.577 6.8837 304.141 7.88039 303.213 8.74589L304.577 10.2087C305.891 8.98324 306.577 7.46478 306.577 5.70454H304.577ZM303.213 8.74555C302.301 9.59553 301.207 10.0227 299.872 10.0227V12.0227C301.689 12.0227 303.277 11.4196 304.576 10.209L303.213 8.74555ZM342.969 25.75L342.995 26.7496L344.053 26.7214L343.965 25.667L342.969 25.75ZM332.764 26.0227L331.775 26.167L331.903 27.0461L332.791 27.0224L332.764 26.0227ZM331.901 24.0909L331.126 24.7231L331.134 24.7331L331.901 24.0909ZM330.06 22.75L329.65 23.6623L329.661 23.6673L329.672 23.672L330.06 22.75ZM324.173 23.0227L323.68 22.1527L323.674 22.1563L324.173 23.0227ZM322.855 25.1136L323.855 25.1359L323.855 25.1161L323.855 25.0964L322.855 25.1136ZM323.673 26.8864L323.008 27.6327L323.018 27.6414L323.673 26.8864ZM326.741 28.0909L326.54 29.0703L326.548 29.072L326.556 29.0735L326.741 28.0909ZM333.469 29.3636L333.657 28.3814L333.655 28.3811L333.469 29.3636ZM341.241 32.6818L340.568 33.4212L340.571 33.4241L341.241 32.6818ZM343.832 38.8182L344.832 38.8245L344.832 38.8122L343.832 38.8182ZM341.696 45.0682L340.913 44.4459L340.91 44.4501L341.696 45.0682ZM335.969 49.2045L336.34 50.133L336.345 50.131L335.969 49.2045ZM315.855 47.5909L315.271 48.4026L315.276 48.4061L315.855 47.5909ZM310.946 39.3182L310.921 38.3185L309.824 38.3458L309.953 39.4358L310.946 39.3182ZM321.923 39.0455L322.906 38.8583L322.747 38.0247L321.898 38.0458L321.923 39.0455ZM323.81 41.9545L324.359 41.1187L324.359 41.1187L323.81 41.9545ZM331.173 42.1591L330.663 41.299L330.663 41.299L331.173 42.1591ZM332.537 40.0455L333.537 40.0627L333.537 40.0445L333.537 40.0262L332.537 40.0455ZM331.491 38.1591L330.912 38.974L330.918 38.9784L330.924 38.9826L331.491 38.1591ZM328.287 37.0227L328.1 38.0051L328.103 38.0056L328.287 37.0227ZM322.196 35.8636L322.383 34.8812L322.375 34.8798L322.196 35.8636ZM314.378 32.3409L313.668 33.0449L313.671 33.048L314.378 32.3409ZM311.832 25.75L312.832 25.7557L312.832 25.7435L311.832 25.75ZM313.696 19.7727L314.492 20.3786L314.494 20.375L313.696 19.7727ZM319.06 15.9545L318.705 15.0195L318.705 15.0195L319.06 15.9545ZM338.446 17.6136L337.858 18.4222L337.861 18.4243L338.446 17.6136ZM342.942 24.7504L332.737 25.0231L332.791 27.0224L342.995 26.7496L342.942 24.7504ZM333.754 25.8784C333.621 24.9687 333.256 24.1521 332.667 23.4487L331.134 24.7331C331.484 25.1509 331.695 25.6222 331.775 26.167L333.754 25.8784ZM332.675 23.4588C332.092 22.7431 331.339 22.2028 330.447 21.828L329.672 23.672C330.295 23.9336 330.77 24.2872 331.126 24.723L332.675 23.4588ZM330.469 21.8377C329.574 21.4357 328.566 21.25 327.469 21.25V23.25C328.341 23.25 329.061 23.3976 329.65 23.6623L330.469 21.8377ZM327.469 21.25C326.048 21.25 324.771 21.5347 323.68 22.1527L324.666 23.8927C325.394 23.4805 326.314 23.25 327.469 23.25V21.25ZM323.674 22.1563C322.531 22.8152 321.833 23.8185 321.855 25.1309L323.855 25.0964C323.847 24.6512 324.028 24.2606 324.673 23.8892L323.674 22.1563ZM321.855 25.0914C321.833 26.0979 322.254 26.9601 323.008 27.6327L324.339 26.1401C323.972 25.8127 323.847 25.493 323.855 25.1359L321.855 25.0914ZM323.018 27.6414C323.797 28.3182 325.035 28.7601 326.54 29.0703L326.943 27.1115C325.508 26.8156 324.701 26.4545 324.329 26.1313L323.018 27.6414ZM326.556 29.0735L333.283 30.3462L333.655 28.3811L326.927 27.1083L326.556 29.0735ZM333.281 30.3458C336.676 30.9952 339.063 32.0501 340.568 33.4212L341.915 31.9425C340.026 30.2226 337.232 29.0654 333.657 28.3814L333.281 30.3458ZM340.571 33.4241C342.052 34.7607 342.819 36.5272 342.832 38.8241L344.832 38.8122C344.816 36.0183 343.855 33.6939 341.912 31.9395L340.571 33.4241ZM342.832 38.8119C342.819 40.9957 342.175 42.8589 340.913 44.4459L342.479 45.6904C344.036 43.732 344.816 41.4285 344.832 38.8245L342.832 38.8119ZM340.91 44.4501C339.64 46.0656 337.882 47.3481 335.592 48.2781L336.345 50.131C338.904 49.0913 340.965 47.6162 342.482 45.6863L340.91 44.4501ZM335.597 48.2761C333.312 49.1903 330.669 49.6591 327.651 49.6591V51.6591C330.875 51.6591 333.777 51.1582 336.34 50.133L335.597 48.2761ZM327.651 49.6591C322.791 49.6591 319.087 48.6606 316.434 46.7757L315.276 48.4061C318.381 50.6121 322.541 51.6591 327.651 51.6591V49.6591ZM316.439 46.7792C313.8 44.8798 312.315 42.3722 311.939 39.2006L309.953 39.4358C310.396 43.1733 312.183 46.1809 315.271 48.4026L316.439 46.7792ZM310.971 40.3179L321.948 40.0451L321.898 38.0458L310.921 38.3185L310.971 40.3179ZM320.941 39.2326C321.23 40.7515 322.003 41.9644 323.261 42.7904L324.359 41.1187C323.586 40.6114 323.101 39.8848 322.906 38.8583L320.941 39.2326ZM323.261 42.7904C324.481 43.5918 325.983 43.9545 327.696 43.9545V41.9545C326.258 41.9545 325.169 41.6506 324.359 41.1187L323.261 42.7904ZM327.696 43.9545C329.236 43.9545 330.588 43.6689 331.683 43.0191L330.663 41.299C329.971 41.7099 329.005 41.9545 327.696 41.9545V43.9545ZM331.683 43.0191C332.812 42.3497 333.514 41.3566 333.537 40.0627L331.537 40.0282C331.529 40.4919 331.322 40.9079 330.663 41.299L331.683 43.0191ZM333.537 40.0262C333.515 38.8975 332.99 37.9771 332.059 37.3356L330.924 38.9826C331.357 39.2804 331.529 39.6177 331.537 40.0647L333.537 40.0262ZM332.071 37.3441C331.213 36.7338 329.975 36.3218 328.471 36.0399L328.103 38.0056C329.508 38.2691 330.407 38.6147 330.912 38.974L332.071 37.3441ZM328.474 36.0404L322.383 34.8813L322.009 36.846L328.1 38.0051L328.474 36.0404ZM322.375 34.8798C318.986 34.2636 316.6 33.1491 315.085 31.6338L313.671 33.048C315.58 34.9569 318.406 36.191 322.017 36.8475L322.375 34.8798ZM315.088 31.6369C313.582 30.1175 312.819 28.1849 312.832 25.7557L310.832 25.7443C310.816 28.6484 311.75 31.1098 313.668 33.0449L315.088 31.6369ZM312.832 25.7435C312.818 23.6024 313.384 21.8325 314.492 20.3785L312.9 19.1669C311.492 21.016 310.816 23.2309 310.832 25.7565L312.832 25.7435ZM314.494 20.375C315.618 18.8851 317.239 17.7142 319.414 16.8896L318.705 15.0195C316.244 15.9524 314.289 17.327 312.898 19.1704L314.494 20.375ZM319.414 16.8896C321.593 16.0636 324.202 15.6364 327.264 15.6364V13.6364C324.023 13.6364 321.163 14.0879 318.705 15.0195L319.414 16.8896ZM327.264 15.6364C331.863 15.6364 335.358 16.6028 337.858 18.4222L339.034 16.8051C336.08 14.6547 332.12 13.6364 327.264 13.6364V15.6364ZM337.861 18.4243C340.343 20.2172 341.708 22.6593 341.972 25.833L343.965 25.667C343.654 21.9316 342.004 18.9494 339.032 16.803L337.861 18.4243ZM369.009 15.0909H370.009V14.0909H369.009V15.0909ZM369.009 23.2727V24.2727H370.009V23.2727H369.009ZM346.986 23.2727H345.986V24.2727H346.986V23.2727ZM346.986 15.0909V14.0909H345.986V15.0909H346.986ZM351.599 6.72727V5.72727H350.599V6.72727H351.599ZM362.713 6.72727H363.713V5.72727H362.713V6.72727ZM363.031 40.6818L362.137 41.129L362.147 41.1485L362.157 41.1675L363.031 40.6818ZM364.009 41.5682L363.615 42.4873L363.629 42.4933L363.643 42.4989L364.009 41.5682ZM366.872 41.7045L367.031 42.6918L367.044 42.6898L367.056 42.6874L366.872 41.7045ZM367.963 41.4773L368.942 41.2721L368.729 40.2551L367.721 40.5071L367.963 41.4773ZM369.645 49.5L369.92 50.4615L370.815 50.2058L370.624 49.2948L369.645 49.5ZM367.395 50.0682L367.167 49.0946L367.163 49.0954L367.395 50.0682ZM363.963 50.5L363.918 49.501L363.917 49.5011L363.963 50.5ZM357.259 49.5909L356.886 50.5189L356.895 50.5225L357.259 49.5909ZM353.009 46.1364L352.159 46.6641L352.163 46.67L353.009 46.1364ZM351.599 40.25L352.599 40.2628V40.25H351.599ZM368.009 15.0909V23.2727H370.009V15.0909H368.009ZM369.009 22.2727H346.986V24.2727H369.009V22.2727ZM347.986 23.2727V15.0909H345.986V23.2727H347.986ZM346.986 16.0909H369.009V14.0909H346.986V16.0909ZM351.599 7.72727H362.713V5.72727H351.599V7.72727ZM361.713 6.72727V39.0227H363.713V6.72727H361.713ZM361.713 39.0227C361.713 39.7966 361.832 40.5187 362.137 41.129L363.926 40.2346C363.807 39.9964 363.713 39.6125 363.713 39.0227H361.713ZM362.157 41.1675C362.49 41.7674 362.984 42.2169 363.615 42.4873L364.402 40.649C364.185 40.5558 364.027 40.4145 363.905 40.1962L362.157 41.1675ZM363.643 42.4989C364.212 42.7227 364.85 42.8182 365.531 42.8182V40.8182C365.03 40.8182 364.653 40.747 364.374 40.6374L363.643 42.4989ZM365.531 42.8182C366.015 42.8182 366.515 42.775 367.031 42.6918L366.713 40.7173C366.29 40.7856 365.896 40.8182 365.531 40.8182V42.8182ZM367.056 42.6874C367.546 42.5956 367.933 42.5155 368.206 42.4474L367.721 40.5071C367.508 40.5603 367.168 40.6316 366.688 40.7217L367.056 42.6874ZM366.984 41.6824L368.666 49.7052L370.624 49.2948L368.942 41.2721L366.984 41.6824ZM369.37 48.5385C368.863 48.6834 368.131 48.8685 367.167 49.0946L367.623 51.0418C368.598 50.8133 369.366 50.6196 369.92 50.4615L369.37 48.5385ZM367.163 49.0954C366.287 49.304 365.209 49.4423 363.918 49.501L364.008 51.499C365.384 51.4365 366.594 51.2869 367.627 51.041L367.163 49.0954ZM363.917 49.5011C361.41 49.6177 359.322 49.3227 357.622 48.6593L356.895 50.5225C358.922 51.3136 361.304 51.6247 364.01 51.4989L363.917 49.5011ZM357.631 48.663C355.962 47.9924 354.718 46.971 353.854 45.6027L352.163 46.67C353.269 48.4229 354.859 49.7046 356.886 50.5189L357.631 48.663ZM353.858 45.6086C353.014 44.2506 352.571 42.4896 352.599 40.2628L350.6 40.2372C350.567 42.7377 351.064 44.9009 352.159 46.6641L353.858 45.6086ZM352.599 40.25V6.72727H350.599V40.25H352.599ZM381.168 48.5L380.685 49.3756L380.691 49.3789L381.168 48.5ZM375.077 42.2955L374.19 42.7585L374.194 42.7645L375.077 42.2955ZM375.099 23.2273L375.984 23.6942L375.985 23.6922L375.099 23.2273ZM381.122 16.9091L381.623 17.7745L381.627 17.7723L381.122 16.9091ZM397.099 15.7955L397.451 14.8591L397.451 14.8591L397.099 15.7955ZM405.94 24.8409L405.004 25.1913L405.005 25.1934L405.94 24.8409ZM407.19 35.2273V36.2273H408.19V35.2273H407.19ZM376.849 35.2273H375.849V36.2273H376.849V35.2273ZM376.849 28.7727V27.7727H375.849V28.7727H376.849ZM396.849 28.7727V29.7727H397.862L397.849 28.7599L396.849 28.7727ZM393.759 23.4545L393.267 24.3254L393.275 24.33L393.284 24.3346L393.759 23.4545ZM387.168 23.5L387.652 24.3749L387.662 24.3691L387.168 23.5ZM384.827 25.75L385.679 26.2726L385.683 26.2665L384.827 25.75ZM383.918 28.9545L382.918 28.9292L382.918 28.9419V28.9545H383.918ZM384.759 39.2727L383.872 39.7349L383.874 39.74L384.759 39.2727ZM387.145 41.75L386.647 42.6175L386.647 42.6175L387.145 41.75ZM393.509 42.2273L393.83 43.1742L393.83 43.1742L393.509 42.2273ZM395.577 41.0227L396.254 41.7583L396.254 41.7583L395.577 41.0227ZM396.872 39.0682L396.901 38.0686L396.185 38.0479L395.935 38.7191L396.872 39.0682ZM407.077 39.3636L408.06 39.546L408.273 38.3978L407.106 38.3641L407.077 39.3636ZM404.281 45.3409L403.519 44.6941L403.518 44.6947L404.281 45.3409ZM398.668 49.2727L399.038 50.2016L399.043 50.1995L398.668 49.2727ZM390.622 49.6591C387.102 49.6591 384.122 48.9659 381.645 47.6211L380.691 49.3789C383.516 50.9128 386.839 51.6591 390.622 51.6591V49.6591ZM381.651 47.6244C379.186 46.2645 377.294 44.3383 375.96 41.8264L374.194 42.7645C375.708 45.6162 377.877 47.8264 380.685 49.3756L381.651 47.6244ZM375.963 41.8324C374.643 39.3065 373.963 36.2677 373.963 32.6818H371.963C371.963 36.5202 372.692 39.8905 374.19 42.7585L375.963 41.8324ZM373.963 32.6818C373.963 29.2089 374.648 26.2232 375.984 23.6942L374.215 22.7603C372.702 25.6253 371.963 28.9426 371.963 32.6818H373.963ZM375.985 23.6922C377.323 21.1431 379.2 19.1777 381.623 17.7745L380.621 16.0437C377.863 17.6405 375.724 19.8872 374.214 22.7623L375.985 23.6922ZM381.627 17.7723C384.04 16.361 386.913 15.6364 390.281 15.6364V13.6364C386.619 13.6364 383.386 14.4268 380.617 16.0459L381.627 17.7723ZM390.281 15.6364C392.662 15.6364 394.814 16.0062 396.748 16.7318L397.451 14.8591C395.264 14.0392 392.871 13.6364 390.281 13.6364V15.6364ZM396.748 16.7318C398.678 17.4555 400.335 18.5217 401.73 19.9308L403.151 18.5237C401.546 16.9026 399.642 15.6809 397.451 14.8591L396.748 16.7318ZM401.73 19.9308C403.119 21.3345 404.214 23.0811 405.004 25.1913L406.877 24.4905C406 22.1462 404.761 20.1503 403.151 18.5237L401.73 19.9308ZM405.005 25.1934C405.788 27.2719 406.19 29.6866 406.19 32.4545H408.19C408.19 29.4952 407.76 26.8342 406.876 24.4884L405.005 25.1934ZM406.19 32.4545V35.2273H408.19V32.4545H406.19ZM407.19 34.2273H376.849V36.2273H407.19V34.2273ZM377.849 35.2273V28.7727H375.849V35.2273H377.849ZM376.849 29.7727H396.849V27.7727H376.849V29.7727ZM397.849 28.7599C397.832 27.4218 397.513 26.1947 396.87 25.1054L395.147 26.1219C395.595 26.881 395.836 27.76 395.85 28.7855L397.849 28.7599ZM396.87 25.1054C396.231 24.0226 395.346 23.1752 394.233 22.5745L393.284 24.3346C394.08 24.7642 394.695 25.3562 395.147 26.1219L396.87 25.1054ZM394.25 22.5837C393.141 21.9576 391.884 21.6591 390.509 21.6591V23.6591C391.588 23.6591 392.497 23.8908 393.267 24.3254L394.25 22.5837ZM390.509 21.6591C389.11 21.6591 387.823 21.9764 386.673 22.6309L387.662 24.3691C388.482 23.9024 389.422 23.6591 390.509 23.6591V21.6591ZM386.683 22.6252C385.547 23.2546 384.638 24.1275 383.97 25.2335L385.683 26.2665C386.167 25.4634 386.819 24.8363 387.652 24.3748L386.683 22.6252ZM383.974 25.2274C383.299 26.3296 382.952 27.5722 382.918 28.9292L384.917 28.9799C384.944 27.943 385.203 27.0492 385.679 26.2726L383.974 25.2274ZM382.918 28.9545V35.5227H384.918V28.9545H382.918ZM382.918 35.5227C382.918 37.0799 383.225 38.4935 383.872 39.7349L385.645 38.8106C385.171 37.9004 384.918 36.8141 384.918 35.5227H382.918ZM383.874 39.74C384.523 40.9661 385.451 41.9314 386.647 42.6175L387.642 40.8825C386.778 40.3868 386.116 39.7005 385.643 38.8054L383.874 39.74ZM386.647 42.6175C387.857 43.311 389.263 43.6364 390.827 43.6364V41.6364C389.542 41.6364 388.494 41.3708 387.642 40.8825L386.647 42.6175ZM390.827 43.6364C391.904 43.6364 392.908 43.4872 393.83 43.1742L393.187 41.2804C392.503 41.5128 391.719 41.6364 390.827 41.6364V43.6364ZM393.83 43.1742C394.754 42.8604 395.568 42.3907 396.254 41.7583L394.899 40.2872C394.434 40.7153 393.869 41.0487 393.187 41.2804L393.83 43.1742ZM396.254 41.7583C396.952 41.1157 397.469 40.3293 397.809 39.4173L395.935 38.7191C395.699 39.3525 395.353 39.8692 394.899 40.2872L396.254 41.7583ZM396.843 40.0678L407.048 40.3632L407.106 38.3641L396.901 38.0686L396.843 40.0678ZM406.093 39.1813C405.7 41.3059 404.84 43.1362 403.519 44.6941L405.044 45.9878C406.601 44.1517 407.605 41.9971 408.06 39.546L406.093 39.1813ZM403.518 44.6947C402.212 46.2372 400.481 47.459 398.292 48.3459L399.043 50.1995C401.491 49.2076 403.502 47.8083 405.044 45.9872L403.518 44.6947ZM398.297 48.3438C396.12 49.212 393.568 49.6591 390.622 49.6591V51.6591C393.767 51.6591 396.579 51.1819 399.038 50.2016L398.297 48.3438ZM412.866 50H411.866V51H412.866V50ZM412.866 15.0909V14.0909H411.866V15.0909H412.866ZM423.662 15.0909H424.662V14.0909H423.662V15.0909ZM423.662 21.4545H422.662V22.4545H423.662V21.4545ZM424.026 21.4545V22.4545H424.787L424.989 21.7209L424.026 21.4545ZM427.139 16.3182L427.754 17.1071L427.759 17.1031L427.139 16.3182ZM433.753 14.7273L433.615 15.7178L433.629 15.7196L433.642 15.7212L433.753 14.7273ZM435.276 15.0227H436.276V14.2718L435.554 14.0624L435.276 15.0227ZM435.276 24.6818L434.951 25.6278L436.276 26.0818V24.6818H435.276ZM433.185 24.25L433.061 25.2423L433.063 25.2425L433.185 24.25ZM427.344 24.9773L427.826 25.8532L427.83 25.8508L427.344 24.9773ZM424.866 27.4091L424.001 26.9076L423.999 26.9116L424.866 27.4091ZM423.98 50V51H424.98V50H423.98ZM413.866 50V15.0909H411.866V50H413.866ZM412.866 16.0909H423.662V14.0909H412.866V16.0909ZM422.662 15.0909V21.4545H424.662V15.0909H422.662ZM423.662 22.4545H424.026V20.4545H423.662V22.4545ZM424.989 21.7209C425.586 19.561 426.53 18.0605 427.754 17.1071L426.525 15.5293C424.87 16.8183 423.738 18.742 423.062 21.1882L424.989 21.7209ZM427.759 17.1031C429.014 16.1121 430.468 15.6136 432.162 15.6136V13.6136C430.038 13.6136 428.143 14.2516 426.52 15.5333L427.759 17.1031ZM432.162 15.6136C432.628 15.6136 433.112 15.6479 433.615 15.7178L433.89 13.7368C433.302 13.6551 432.726 13.6136 432.162 13.6136V15.6136ZM433.642 15.7212C434.138 15.7762 434.588 15.8645 434.997 15.9831L435.554 14.0624C435.023 13.9082 434.459 13.7996 433.863 13.7334L433.642 15.7212ZM434.276 15.0227V24.6818H436.276V15.0227H434.276ZM435.6 23.7359C434.978 23.5228 434.206 23.3679 433.307 23.2575L433.063 25.2425C433.891 25.3442 434.512 25.4772 434.951 25.6278L435.6 23.7359ZM433.309 23.2577C432.43 23.1479 431.63 23.0909 430.912 23.0909V25.0909C431.527 25.0909 432.242 25.14 433.061 25.2423L433.309 23.2577ZM430.912 23.0909C429.438 23.0909 428.079 23.4229 426.857 24.1037L427.83 25.8508C428.73 25.3499 429.749 25.0909 430.912 25.0909V23.0909ZM426.861 24.1013C425.655 24.7659 424.697 25.7069 424.001 26.9076L425.732 27.9106C426.248 27.0204 426.942 26.3401 427.826 25.8532L426.861 24.1013ZM423.999 26.9116C423.307 28.1178 422.98 29.5075 422.98 31.0455H424.98C424.98 29.7955 425.244 28.761 425.734 27.9066L423.999 26.9116ZM422.98 31.0455V50H424.98V31.0455H422.98ZM423.98 49H412.866V51H423.98V49Z" fill="#7FCF57"/>
</svg>
